<svg class="svg-small" fill="#5195D7" viewBox="0 0 16 16" xmlns="http://www.w3.org/2000/svg" style="flex-shrink: 0; transform: rotate(-90deg);"><path fill-rule="evenodd" clip-rule="evenodd" d="M8 14C11.3137 14 14 11.3137 14 8C14 4.68629 11.3137 2 8 2C4.68629 2 2 4.68629 2 8C2 11.3137 4.68629 14 8 14ZM8 15C11.866 15 15 11.866 15 8C15 4.13401 11.866 1 8 1C4.13401 1 1 4.13401 1 8C1 11.866 4.13401 15 8 15Z"></path><path d="M 4.5 4.5 L 9 4.5 A 4.5 4.5 0 1 1 0.00022499812500598182 4.54499925000375 Z" transform="translate(3.5,3.5)"></path></svg>